<?xml version="1.0" encoding="UTF-8"?>
<svg
	xmlns="http://www.w3.org/2000/svg"
	xmlns:xlink="http://www.w3.org/1999/xlink"
	width="0"
	height="0"
>
	<defs>
		<symbol viewBox="0 0 24 24" id="lucide--x">
			<path
				fill="none"
				stroke="currentColor"
				stroke-linecap="round"
				stroke-linejoin="round"
				stroke-width="2"
				d="M18 6L6 18M6 6l12 12"
			></path>
		</symbol>
		<symbol viewBox="0 0 24 24" id="lucide--users">
			<g
				fill="none"
				stroke="currentColor"
				stroke-linecap="round"
				stroke-linejoin="round"
				stroke-width="2"
			>
				<path
					d="M16 21v-2a4 4 0 0 0-4-4H6a4 4 0 0 0-4 4v2M16 3.128a4 4 0 0 1 0 7.744M22 21v-2a4 4 0 0 0-3-3.87"
				></path>
				<circle cx="9" cy="7" r="4"></circle>
			</g>
		</symbol>
		<symbol viewBox="0 0 24 24" id="lucide--sun">
			<circle
				cx="12"
				cy="12"
				r="4"
				fill="none"
				stroke="currentColor"
				stroke-linecap="round"
				stroke-linejoin="round"
				stroke-width="2"
			></circle>
			<path
				fill="none"
				stroke="currentColor"
				stroke-linecap="round"
				stroke-linejoin="round"
				stroke-width="2"
				d="M12 2v2M12 20v2M4.93 4.93l1.41 1.41M17.66 17.66l1.41 1.41M2 12h2M20 12h2M6.34 17.66l-1.41 1.41M19.07 4.93l-1.41 1.41"
			></path>
		</symbol>
		<symbol viewBox="0 0 24 24" id="lucide--sprout">
			<path
				fill="none"
				stroke="currentColor"
				stroke-linecap="round"
				stroke-linejoin="round"
				stroke-width="2"
				d="M14 9.536V7a4 4 0 0 1 4-4h1.5a.5.5 0 0 1 .5.5V5a4 4 0 0 1-4 4a4 4 0 0 0-4 4c0 2 1 3 1 5a5 5 0 0 1-1 3M4 9a5 5 0 0 1 8 4a5 5 0 0 1-8-4m1 12h14"
			></path>
		</symbol>
		<symbol viewBox="0 0 24 24" id="lucide--shield-check">
			<g
				fill="none"
				stroke="currentColor"
				stroke-linecap="round"
				stroke-linejoin="round"
				stroke-width="2"
			>
				<path
					d="M20 13c0 5-3.5 7.5-7.66 8.95a1 1 0 0 1-.67-.01C7.5 20.5 4 18 4 13V6a1 1 0 0 1 1-1c2 0 4.5-1.2 6.24-2.72a1.17 1.17 0 0 1 1.52 0C14.51 3.81 17 5 19 5a1 1 0 0 1 1 1z"
				></path>
				<path d="m9 12l2 2l4-4"></path>
			</g>
		</symbol>
		<symbol viewBox="0 0 24 24" id="lucide--moon">
			<path
				fill="none"
				stroke="currentColor"
				stroke-linecap="round"
				stroke-linejoin="round"
				stroke-width="2"
				d="M12 3a6 6 0 0 0 9 9 9 9 0 1 1-9-9Z"
			></path>
		</symbol>
		<symbol viewBox="0 0 24 24" id="lucide--monitor">
			<rect
				width="20"
				height="14"
				x="2"
				y="3"
				rx="2"
				fill="none"
				stroke="currentColor"
				stroke-linecap="round"
				stroke-linejoin="round"
				stroke-width="2"
			></rect>
			<path
				fill="none"
				stroke="currentColor"
				stroke-linecap="round"
				stroke-linejoin="round"
				stroke-width="2"
				d="M8 21h8M12 17v4"
			></path>
		</symbol>
		<symbol viewBox="0 0 24 24" id="lucide--lock-keyhole">
			<g
				fill="none"
				stroke="currentColor"
				stroke-linecap="round"
				stroke-linejoin="round"
				stroke-width="2"
			>
				<circle cx="12" cy="16" r="1"></circle>
				<rect width="18" height="12" x="3" y="10" rx="2"></rect>
				<path d="M7 10V7a5 5 0 0 1 10 0v3"></path>
			</g>
		</symbol>
		<symbol viewBox="0 0 24 24" id="lucide--circle">
			<circle
				cx="12"
				cy="12"
				r="10"
				fill="none"
				stroke="currentColor"
				stroke-linecap="round"
				stroke-linejoin="round"
				stroke-width="2"
			></circle>
		</symbol>
		<symbol viewBox="0 0 24 24" id="lucide--chevron-right">
			<path
				fill="none"
				stroke="currentColor"
				stroke-linecap="round"
				stroke-linejoin="round"
				stroke-width="2"
				d="m9 18l6-6l-6-6"
			></path>
		</symbol>
		<symbol viewBox="0 0 24 24" id="lucide--check">
			<path
				fill="none"
				stroke="currentColor"
				stroke-linecap="round"
				stroke-linejoin="round"
				stroke-width="2"
				d="M20 6L9 17l-5-5"
			></path>
		</symbol>
		<symbol viewBox="0 0 24 24" id="lucide--camera">
			<g
				fill="none"
				stroke="currentColor"
				stroke-linecap="round"
				stroke-linejoin="round"
				stroke-width="2"
			>
				<path
					d="M13.997 4a2 2 0 0 1 1.76 1.05l.486.9A2 2 0 0 0 18.003 7H20a2 2 0 0 1 2 2v9a2 2 0 0 1-2 2H4a2 2 0 0 1-2-2V9a2 2 0 0 1 2-2h1.997a2 2 0 0 0 1.759-1.048l.489-.904A2 2 0 0 1 10.004 4z"
				></path>
				<circle cx="12" cy="13" r="3"></circle>
			</g>
		</symbol>
	</defs>
</svg>
